<mxfile host="65bd71144e">
    <diagram id="VVfCD4cTJvNlWvyD3Cdj" name="Page-1">
        <mxGraphModel dx="630" dy="447" grid="1" gridSize="10" guides="1" tooltips="1" connect="1" arrows="1" fold="1" page="1" pageScale="1" pageWidth="850" pageHeight="1100" math="0" shadow="0">
            <root>
                <mxCell id="0"/>
                <mxCell id="1" parent="0"/>
                <mxCell id="2" value="User" style="swimlane;fontStyle=0;childLayout=stackLayout;horizontal=1;startSize=26;fillColor=#60a917;horizontalStack=0;resizeParent=1;resizeParentMax=0;resizeLast=0;collapsible=1;marginBottom=0;html=1;fontColor=#ffffff;strokeColor=#2D7600;" vertex="1" parent="1">
                    <mxGeometry x="100" y="100" width="190" height="312" as="geometry"/>
                </mxCell>
                <mxCell id="3" value="Id" style="text;strokeColor=default;fillColor=default;align=left;verticalAlign=top;spacingLeft=4;spacingRight=4;overflow=hidden;rotatable=0;points=[[0,0.5],[1,0.5]];portConstraint=eastwest;whiteSpace=wrap;html=1;fontColor=#ffffff;glass=1;fontStyle=1" vertex="1" parent="2">
                    <mxGeometry y="26" width="190" height="26" as="geometry"/>
                </mxCell>
                <mxCell id="6" value="userName" style="text;strokeColor=default;fillColor=default;align=left;verticalAlign=top;spacingLeft=4;spacingRight=4;overflow=hidden;rotatable=0;points=[[0,0.5],[1,0.5]];portConstraint=eastwest;whiteSpace=wrap;html=1;rounded=0;fontStyle=1;horizontal=1;" vertex="1" parent="2">
                    <mxGeometry y="52" width="190" height="26" as="geometry"/>
                </mxCell>
                <mxCell id="8" value="email" style="text;strokeColor=default;fillColor=default;align=left;verticalAlign=top;spacingLeft=4;spacingRight=4;overflow=hidden;rotatable=0;points=[[0,0.5],[1,0.5]];portConstraint=eastwest;whiteSpace=wrap;html=1;fontStyle=1;horizontal=1;" vertex="1" parent="2">
                    <mxGeometry y="78" width="190" height="26" as="geometry"/>
                </mxCell>
                <mxCell id="9" value="phoneNumber" style="text;strokeColor=default;fillColor=default;align=left;verticalAlign=top;spacingLeft=4;spacingRight=4;overflow=hidden;rotatable=0;points=[[0,0.5],[1,0.5]];portConstraint=eastwest;whiteSpace=wrap;html=1;fontStyle=1;horizontal=1;" vertex="1" parent="2">
                    <mxGeometry y="104" width="190" height="26" as="geometry"/>
                </mxCell>
                <mxCell id="10" value="password" style="text;strokeColor=default;fillColor=default;align=left;verticalAlign=top;spacingLeft=4;spacingRight=4;overflow=hidden;rotatable=0;points=[[0,0.5],[1,0.5]];portConstraint=eastwest;whiteSpace=wrap;html=1;fontStyle=1;horizontal=1;" vertex="1" parent="2">
                    <mxGeometry y="130" width="190" height="26" as="geometry"/>
                </mxCell>
                <mxCell id="7" value="address" style="text;strokeColor=default;fillColor=default;align=left;verticalAlign=top;spacingLeft=4;spacingRight=4;overflow=hidden;rotatable=0;points=[[0,0.5],[1,0.5]];portConstraint=eastwest;whiteSpace=wrap;html=1;fontStyle=1;horizontal=1;" vertex="1" parent="2">
                    <mxGeometry y="156" width="190" height="26" as="geometry"/>
                </mxCell>
                <mxCell id="11" value="zipCode" style="text;strokeColor=default;fillColor=default;align=left;verticalAlign=top;spacingLeft=4;spacingRight=4;overflow=hidden;rotatable=0;points=[[0,0.5],[1,0.5]];portConstraint=eastwest;whiteSpace=wrap;html=1;fontStyle=1;horizontal=1;" vertex="1" parent="2">
                    <mxGeometry y="182" width="190" height="26" as="geometry"/>
                </mxCell>
                <mxCell id="12" value="cartId" style="text;strokeColor=default;fillColor=default;align=left;verticalAlign=top;spacingLeft=4;spacingRight=4;overflow=hidden;rotatable=0;points=[[0,0.5],[1,0.5]];portConstraint=eastwest;whiteSpace=wrap;html=1;fontStyle=1;horizontal=1;" vertex="1" parent="2">
                    <mxGeometry y="208" width="190" height="26" as="geometry"/>
                </mxCell>
                <mxCell id="15" value="favorite" style="text;strokeColor=default;fillColor=default;align=left;verticalAlign=top;spacingLeft=4;spacingRight=4;overflow=hidden;rotatable=0;points=[[0,0.5],[1,0.5]];portConstraint=eastwest;whiteSpace=wrap;html=1;fontStyle=1;horizontal=1;" vertex="1" parent="2">
                    <mxGeometry y="234" width="190" height="26" as="geometry"/>
                </mxCell>
                <mxCell id="13" value="createdAt" style="text;strokeColor=default;fillColor=default;align=left;verticalAlign=top;spacingLeft=4;spacingRight=4;overflow=hidden;rotatable=0;points=[[0,0.5],[1,0.5]];portConstraint=eastwest;whiteSpace=wrap;html=1;fontStyle=1;horizontal=1;" vertex="1" parent="2">
                    <mxGeometry y="260" width="190" height="26" as="geometry"/>
                </mxCell>
                <mxCell id="14" value="updatedAt" style="text;strokeColor=default;fillColor=default;align=left;verticalAlign=top;spacingLeft=4;spacingRight=4;overflow=hidden;rotatable=0;points=[[0,0.5],[1,0.5]];portConstraint=eastwest;whiteSpace=wrap;html=1;shadow=0;glass=0;" vertex="1" parent="2">
                    <mxGeometry y="286" width="190" height="26" as="geometry"/>
                </mxCell>
                <mxCell id="16" value="" style="edgeStyle=segmentEdgeStyle;endArrow=classic;html=1;curved=0;rounded=0;endSize=8;startSize=8;exitX=1;exitY=0.5;exitDx=0;exitDy=0;" edge="1" parent="1" source="3">
                    <mxGeometry width="50" height="50" relative="1" as="geometry">
                        <mxPoint x="310" y="270" as="sourcePoint"/>
                        <mxPoint x="450" y="120" as="targetPoint"/>
                    </mxGeometry>
                </mxCell>
            </root>
        </mxGraphModel>
    </diagram>
</mxfile>